<svg width="74" height="77" viewBox="0 0 74 77" fill="none" xmlns="http://www.w3.org/2000/svg">
<path d="M69.4695 46.9832C66.7642 67.2608 64.7761 79.2925 38.7352 76.2986C37.0586 76.1059 35.3539 76.1709 33.6875 76.4377C13.133 79.7292 4.93195 67.7053 3.1669 46.9831C0.117883 23.3671 8.92889 12.0302 30.1625 16.2642C31.3346 16.4979 32.5593 16.2751 33.5842 15.6605C52.9701 4.03654 73.9357 13.5065 69.4695 46.9832Z" fill="#DE2E06"/>
<path d="M6.90198 54.6096L12.8003 55.4005C13.9453 55.554 15.0799 55.0117 15.6861 54.0211L19.5575 47.695C20.1261 46.7658 21.1637 46.2259 22.2458 46.2959L25.2469 46.4903C26.9227 46.5988 28.138 48.1043 27.8914 49.7663L27.1862 54.5195C26.928 56.2603 28.2697 57.8089 30.03 57.8016L46.0444 57.7354C47.6475 57.7288 48.9555 56.4238 48.9627 54.8238L48.9837 50.2002C48.9881 49.2215 48.1394 48.4659 47.1642 48.5803L44.5274 48.8898C43.3124 49.0325 42.8021 47.4063 43.8747 46.81C44.0157 46.7316 44.1715 46.6843 44.3317 46.6713L49.9924 46.2109C51.1745 46.1148 52.2877 46.7462 52.8029 47.8052L55.6308 53.6174C56.2122 54.8122 57.5419 55.4452 58.8489 55.1493L66.2168 53.4812C68.4884 52.967 69.2888 50.1332 67.6096 48.5497L47.0116 29.1254C46.2756 28.4313 45.1037 28.4863 44.4193 29.2471L43.0686 30.7486C42.8294 31.0145 42.3932 30.8163 42.4417 30.4638L42.7558 28.183C42.8914 27.1982 42.4384 26.232 41.5975 25.7122L37.3613 23.0935C36.2728 22.4205 34.8353 23.0724 34.6121 24.3401L33.4507 30.9369C33.3302 31.6213 32.4087 31.77 32.0925 31.1561L31.4467 29.9019C30.9117 28.863 29.5359 28.6122 28.6478 29.3917L7.65013 47.8204L5.54102 49.4834C3.52762 51.0709 4.37722 54.271 6.90198 54.6096Z" fill="url(#paint0_linear_19_36)"/>
<path d="M22.1438 42.3947L26.4132 36.4228C27.0303 35.5596 28.3966 36.0131 28.3828 37.0766L28.2996 43.4979C28.2913 44.1351 27.7381 44.625 27.1039 44.5569L22.9178 44.1075C22.0897 44.0186 21.661 43.07 22.1438 42.3947Z" fill="#DE2E06"/>
<path d="M44.175 43.2761L45.3012 36.5933C45.4703 35.5894 46.8066 35.3578 47.3134 36.2446L50.8651 42.4595C51.2549 43.1417 50.8168 43.9956 50.037 44.0736L45.3591 44.5415C44.6449 44.6129 44.0558 43.9834 44.175 43.2761Z" fill="#DE2E06"/>
<path d="M18.1483 8.14163L30.0989 14.0554C30.4595 14.2338 30.7983 13.7787 30.5239 13.4844L18.5732 0.671493C18.3492 0.431346 17.9469 0.589846 17.9469 0.918237L17.947 7.81742C17.947 7.95497 18.025 8.08062 18.1483 8.14163Z" fill="url(#paint1_linear_19_36)"/>
<defs>
<linearGradient id="paint0_linear_19_36" x1="38.6161" y1="21.9541" x2="35.8141" y2="58.5141" gradientUnits="userSpaceOnUse">
<stop offset="0.4" stop-color="white"/>
<stop offset="1" stop-color="#FFBAAB"/>
</linearGradient>
<linearGradient id="paint1_linear_19_36" x1="26.2951" y1="5.28153" x2="22.6617" y2="11.0247" gradientUnits="userSpaceOnUse">
<stop stop-color="#63B400"/>
<stop offset="1" stop-color="#2B4E00"/>
</linearGradient>
</defs>
</svg>
